<svg width="252" height="216" viewBox="0 0 252 216" fill="none" xmlns="http://www.w3.org/2000/svg">
<path d="M50.3817 78.2817C85.8391 98.5453 79.8782 157.829 41.4447 157.877C24.8685 157.897 10.5075 145.462 4.10008 129.55C-10.6966 92.7985 19.9394 60.8781 50.3817 78.2817Z" fill="#FAC663" fill-opacity="0.15"/>
<path d="M86.7815 85.5767C44.269 85.6294 31.4505 13.502 71.8249 1.59129C90.2195 -3.83354 111.16 9.10244 117.91 32.7887C125.484 59.3371 110.681 85.5471 86.7815 85.5767Z" fill="#FAC663" fill-opacity="0.15"/>
<path d="M97.8743 213.98C103.776 212.342 114.253 211.278 125.221 211.113C136.814 210.929 148.953 211.744 156.81 213.907C178.028 219.786 206.873 205.463 200.503 175.8C194.612 148.378 173.568 149.966 168.558 123.977C163.511 97.7113 144.008 85.0562 125.066 86.0708C107.535 87.0122 90.4874 99.6679 85.8681 124.086C80.9523 150.105 59.9476 148.553 54.1326 175.982C47.8135 205.684 76.7542 219.857 97.8743 213.98Z" fill="#FAC663" fill-opacity="0.15"/>
<path d="M161.603 85.4866C149.577 85.5015 139.241 78.5348 133.489 67.8598C116.39 36.1175 144.354 -7.88948 176.354 1.48801C216.827 13.3313 204.092 85.4339 161.603 85.4866Z" fill="#FAC663" fill-opacity="0.15"/>
<path d="M180.878 134.084C167.187 100.724 199.492 59.9143 230.41 72.704C267.652 88.1081 251.317 154.766 210.389 154.816C197.254 154.833 186.082 146.766 180.878 134.084Z" fill="#FAC663" fill-opacity="0.15"/>
</svg>
