<svg width="484" height="152" viewBox="0 0 484 152" fill="none" xmlns="http://www.w3.org/2000/svg">
<path fill-rule="evenodd" clip-rule="evenodd" d="M370.831 52.2239C380.073 63.2928 378.014 91.8949 367.638 99.8117C361.868 83.4555 363.895 67.9321 370.831 52.2239ZM329.211 117.602C320.711 99.5706 324.462 48.1294 331.414 34.9788C345.093 53.2351 344.063 96.8848 329.211 117.602ZM91.0075 44.0036C102.532 43.9786 110.64 52.2897 110.648 64.1193C110.656 75.7705 102.165 84.5136 90.9675 84.3758C79.7465 84.2475 71.7895 75.9458 71.7177 64.3259C71.6379 52.274 79.4752 44.0286 91.0075 44.0036V44.0036ZM285.58 19.7151C308.461 50.5742 303.593 109.7 282.555 131.945C283.569 94.5621 284.558 57.7302 285.58 19.7151ZM154.112 12.268C181.989 52.7937 174.271 112.039 151.159 136.809C157.168 94.634 155.676 53.476 154.112 12.268ZM234.343 138.91C241.869 96.5185 242.316 54.5498 242.212 11.2913C265.005 43.2179 262.834 111.237 234.343 138.91ZM194.112 140.103C198.046 96.8848 205.181 53.7233 197.04 10.2082C225.724 42.2474 221.829 103.08 194.112 140.103ZM450.216 78.3906C463.464 70.2235 473.496 59.6209 480.192 46.126C489.011 28.3111 482.267 16.8696 462.499 15.1229C451.916 14.1838 442.044 16.5566 433.193 21.9658C425.061 26.9274 417.575 32.9691 409.857 38.61C407.798 40.1157 405.954 41.9031 403.967 43.5215C395.97 49.9826 387.631 50.8716 378.141 46.3983C360.863 38.2562 343.64 29.7949 325.779 23.1209C288.014 9.01558 248.636 2.2665 208.421 0.416451C147.456 -2.40438 89.1638 9.15013 33.4018 33.7047C24.599 37.5832 16.6023 43.3618 8.37406 48.4988C6.39482 49.7258 4.81462 51.7293 3.38605 53.62C-1.41042 59.9027 -1.22696 66.3857 4.67884 71.6259C49.8263 111.745 99.8742 142.212 161.247 149.046C220.736 155.657 278.692 149.281 334.055 125.384C349.235 118.844 363.8 110.831 378.62 103.44C383.329 101.092 388.013 98.6816 392.571 96.0678C395.34 94.4744 396.585 95.3227 398.213 97.8489C402.722 104.811 407.104 111.961 412.451 118.243C423.065 130.711 436.712 135.488 452.834 131.729C464.246 129.077 469.29 121.198 467.399 109.669C465.364 97.3355 458.747 87.4843 450.216 78.3906" fill="#FAB751"/>
</svg>
