<svg width="242" height="207" viewBox="0 0 242 207" fill="none" xmlns="http://www.w3.org/2000/svg">
<path d="M48.7256 74.6481C82.73 94.1339 76.8886 150.924 39.9863 150.893C24.0705 150.88 10.3064 138.937 4.18591 123.678C-9.94809 88.4356 19.5309 57.9125 48.7256 74.6481Z" fill="#FFFEFD" fill-opacity="0.2"/>
<path d="M83.6606 81.7101C42.8418 81.676 30.6776 12.5425 69.4671 1.21078C87.1396 -3.95035 107.22 8.48577 113.654 31.1938C120.873 56.6459 106.608 81.7293 83.6606 81.7101Z" fill="#FFFEFD" fill-opacity="0.2"/>
<path d="M94.0559 204.76C99.7259 203.202 109.788 202.204 120.319 202.067C131.45 201.914 143.104 202.719 150.643 204.807C171.005 210.482 198.729 196.817 192.672 168.383C187.07 142.097 166.861 143.577 162.103 118.666C157.309 93.4894 138.608 81.3253 120.419 82.2597C103.584 83.1268 87.1909 95.2188 82.7069 118.605C77.9353 143.525 57.7705 141.997 52.1326 168.265C46.0061 196.712 73.7655 210.35 94.0559 204.76Z" fill="#FFFEFD" fill-opacity="0.2"/>
<path d="M155.501 81.7726C143.955 81.763 134.044 75.0673 128.543 64.8278C112.188 34.3804 139.126 -7.72878 169.832 1.31981C208.669 12.7479 196.297 81.8067 155.501 81.7726Z" fill="#FFFEFD" fill-opacity="0.2"/>
<path d="M173.912 128.374C160.832 96.3835 191.932 57.3463 221.592 69.6621C257.319 84.4954 241.503 148.33 202.206 148.297C189.594 148.287 178.883 140.535 173.912 128.374Z" fill="#FFFEFD" fill-opacity="0.2"/>
</svg>
